<svg id="Слой_1" data-name="Слой 1" xmlns="http://www.w3.org/2000/svg" viewBox="0 0 100 100"><defs><style>.cls-1{fill:#fff;}.cls-2{fill:none;stroke:#fff;stroke-miterlimit:10;stroke-width:3px;}</style></defs><path class="cls-1" d="M46.93,49.21c0-.3,0-.6,0-.9-.08-1.94-1.1-2.68-3-2.18a2.3,2.3,0,0,1-.35.1c-.49,0-.94.77-1.34.35s.12-1,.13-1.47a2,2,0,0,1,1.3-1.85,15.88,15.88,0,0,1,4.52-1.72,4.93,4.93,0,0,1,5.66,3.35,9.9,9.9,0,0,1,.45,4c-.25,5.33-1.92,10.42-2.55,15.69a8.3,8.3,0,0,0,.1,2.94A1.69,1.69,0,0,0,54,68.88a6.4,6.4,0,0,0,2-.62c.47-.24.65-.06.63.46A3.29,3.29,0,0,1,54.58,72c-1.57.7-3,1.54-4.83,1.44a5.31,5.31,0,0,1-5.15-4.53,18.86,18.86,0,0,1,.26-6.7c.62-3.76,1.33-7.5,2-11.24.1-.56.09-1.14.14-1.7Z"/><path class="cls-1" d="M47.62,32a4.81,4.81,0,0,1,4.74-4.77A4.63,4.63,0,0,1,57.1,32a4.51,4.51,0,0,1-4.71,4.69A4.58,4.58,0,0,1,47.62,32Z"/><circle class="cls-2" cx="49.62" cy="50.45" r="44.38"/></svg>