<?xml version="1.0" encoding="utf-8"?>
<!-- Generator: Adobe Illustrator 24.2.3, SVG Export Plug-In . SVG Version: 6.00 Build 0)  -->
<svg version="1.1" id="Слой_1" xmlns="http://www.w3.org/2000/svg" xmlns:xlink="http://www.w3.org/1999/xlink" x="0px" y="0px"
	 viewBox="0 0 100 100" style="enable-background:new 0 0 100 100;" xml:space="preserve">
<style type="text/css">
	.st0{display:none;}
	.st1{display:inline;fill:#FFFFFF;}
	.st2{display:none;fill:none;stroke:#FFFFFF;stroke-width:3;stroke-miterlimit:10;}
	.st3{fill:#F9F9F9;}
</style>
<g class="st0">
	<path class="st1" d="M46.93,49.21c0-0.3,0.01-0.6,0-0.9c-0.08-1.94-1.1-2.69-2.98-2.18c-0.12,0.03-0.23,0.08-0.35,0.09
		c-0.49,0.04-0.94,0.77-1.34,0.35c-0.3-0.31,0.11-0.96,0.13-1.46c0.02-0.93,0.5-1.47,1.3-1.85c1.46-0.7,2.88-1.47,4.52-1.72
		c2.61-0.4,4.77,0.87,5.67,3.35c0.46,1.29,0.51,2.61,0.45,3.98c-0.25,5.33-1.93,10.42-2.56,15.69c-0.12,0.99-0.13,1.97,0.11,2.95
		c0.25,1.05,0.99,1.53,2.08,1.37c0.72-0.1,1.41-0.28,2.05-0.62c0.46-0.24,0.65-0.06,0.62,0.46c-0.07,1.48-0.55,2.56-2.05,3.23
		c-1.56,0.7-3.01,1.54-4.83,1.44c-2.64-0.14-4.64-1.81-5.15-4.54c-0.42-2.25-0.1-4.49,0.27-6.7c0.62-3.75,1.33-7.49,1.98-11.24
		c0.1-0.56,0.09-1.13,0.14-1.7C46.96,49.22,46.95,49.21,46.93,49.21z"/>
	<path class="st1" d="M47.62,32.01c0-2.59,2.15-4.76,4.74-4.77c2.68-0.02,4.72,2.03,4.73,4.73c0.01,2.74-1.94,4.69-4.7,4.69
		C49.65,36.66,47.62,34.68,47.62,32.01z"/>
</g>
<circle class="st2" cx="49.62" cy="50.45" r="44.38"/>
<g>
	<path class="st3" d="M36.07,75.88c0.01,0.14,0,0.27,0,0.41h30.86c0.04-0.39,0.04-0.78,0.09-1.17c0.67-5.23,3.59-9.28,7.02-13.02
		c4.35-4.75,8.41-9.74,9.86-16.15c1.89-8.37,1.09-16.49-3.01-24.25C74.75,10.07,61.32,2.73,48.28,4.18
		C28.17,6.41,14.72,24.93,18.8,44.8c1.49,7.26,5.96,12.74,10.76,18.03C32.95,66.57,35.6,70.73,36.07,75.88z"/>
	<path class="st3" d="M65.57,95H38.36c-0.13,0-0.23-0.1-0.23-0.23v-9.65c0-0.13,0.1-0.23,0.23-0.23h27.21c0.13,0,0.23,0.1,0.23,0.23
		v9.65C65.8,94.9,65.7,95,65.57,95z"/>
</g>
</svg>
