<?xml version="1.0" encoding="utf-8"?>
<!-- Generator: Adobe Illustrator 24.2.3, SVG Export Plug-In . SVG Version: 6.00 Build 0)  -->
<svg version="1.1" id="Слой_1" xmlns="http://www.w3.org/2000/svg" xmlns:xlink="http://www.w3.org/1999/xlink" x="0px" y="0px"
	 viewBox="0 0 100 100" style="enable-background:new 0 0 100 100;" xml:space="preserve">
<style type="text/css">
	.st0{display:none;}
	.st1{display:inline;fill:#FFFFFF;}
	.st2{display:none;fill:none;stroke:#FFFFFF;stroke-width:3;stroke-miterlimit:10;}
	.st3{display:inline;fill:#F9F9F9;}
	
		.st4{display:none;fill-rule:evenodd;clip-rule:evenodd;fill:none;stroke:#FFFFFF;stroke-width:0.4;stroke-linecap:round;stroke-miterlimit:10;}
	.st5{display:none;opacity:0.87;fill:#D9D9D9;}
	.st6{display:none;opacity:0.87;}
	.st7{display:inline;}
	.st8{fill:#D9D9D9;}
	.st9{opacity:0.87;fill:#D9D9D9;}
</style>
<g class="st0">
	<path class="st1" d="M46.93,49.21c0-0.3,0.01-0.6,0-0.9c-0.08-1.94-1.1-2.69-2.98-2.18c-0.12,0.03-0.23,0.08-0.35,0.09
		c-0.49,0.04-0.94,0.77-1.34,0.35c-0.3-0.31,0.11-0.96,0.13-1.46c0.02-0.93,0.5-1.47,1.3-1.85c1.46-0.7,2.88-1.47,4.52-1.72
		c2.61-0.4,4.77,0.87,5.67,3.35c0.46,1.29,0.51,2.61,0.45,3.98c-0.25,5.33-1.93,10.42-2.56,15.69c-0.12,0.99-0.13,1.97,0.11,2.95
		c0.25,1.05,0.99,1.53,2.08,1.37c0.72-0.1,1.41-0.28,2.05-0.62c0.46-0.24,0.65-0.06,0.62,0.46c-0.07,1.48-0.55,2.56-2.05,3.23
		c-1.56,0.7-3.01,1.54-4.83,1.44c-2.64-0.14-4.64-1.81-5.15-4.54c-0.42-2.25-0.1-4.49,0.27-6.7c0.62-3.75,1.33-7.49,1.98-11.24
		c0.1-0.56,0.09-1.13,0.14-1.7C46.96,49.22,46.95,49.21,46.93,49.21z"/>
	<path class="st1" d="M47.62,32.01c0-2.59,2.15-4.76,4.74-4.77c2.68-0.02,4.72,2.03,4.73,4.73c0.01,2.74-1.94,4.69-4.7,4.69
		C49.65,36.66,47.62,34.68,47.62,32.01z"/>
</g>
<circle class="st2" cx="49.62" cy="50.45" r="44.38"/>
<g class="st0">
	<path class="st3" d="M36.07,75.88c0.01,0.14,0,0.27,0,0.41h30.86c0.04-0.39,0.04-0.78,0.09-1.17c0.67-5.23,3.59-9.28,7.02-13.02
		c4.35-4.75,8.41-9.74,9.86-16.15c1.89-8.37,1.09-16.49-3.01-24.25C74.75,10.07,61.32,2.73,48.28,4.18
		C28.17,6.41,14.72,24.93,18.8,44.8c1.49,7.26,5.96,12.74,10.76,18.03C32.95,66.57,35.6,70.73,36.07,75.88z"/>
	<path class="st3" d="M65.57,95H38.36c-0.13,0-0.23-0.1-0.23-0.23v-9.65c0-0.13,0.1-0.23,0.23-0.23h27.21c0.13,0,0.23,0.1,0.23,0.23
		v9.65C65.8,94.9,65.7,95,65.57,95z"/>
</g>
<line class="st4" x1="7.97" y1="9.81" x2="96" y2="9.81"/>
<line class="st4" x1="7.34" y1="48.92" x2="95.37" y2="48.92"/>
<line class="st4" x1="6.71" y1="89.91" x2="94.75" y2="89.91"/>
<path class="st5" d="M89.93,13.56l-0.58-0.63C84.76,7.83,78.56,5,71.91,5c-6.55,0-12.76,2.83-17.37,7.93l-4.49,4.94l-4.41-4.94
	C40.96,7.83,34.76,5,28.19,5c-6.63,0-12.85,2.83-17.45,7.93l-0.57,0.63c-4.54,5.07-7.06,11.78-7.06,18.82
	c0,7.1,2.52,13.79,7.06,18.86c0,0,0,0,0,0.05l37.54,40.44c0.63,0.63,1.46,1.02,2.34,1.02c0.88,0,1.77-0.38,2.34-1.02L89.93,51.3
	c0-0.05,0-0.05,0-0.05C94.48,46.18,97,39.48,97,32.39C97,25.35,94.48,18.64,89.93,13.56z"/>
<g class="st6">
	<g class="st7">
		<path class="st8" d="M49.83,96c-0.91,0-1.76-0.39-2.41-1.04L8.91,53.47c0-0.05,0-0.05,0-0.05c-4.66-5.2-7.24-12.07-7.24-19.36
			c0-7.22,2.58-14.11,7.24-19.31l0.58-0.65c4.73-5.23,11.1-8.14,17.91-8.14c6.74,0,13.1,2.91,17.9,8.14l4.53,5.06l4.6-5.06
			c4.73-5.23,11.1-8.14,17.82-8.14c6.83,0,13.18,2.91,17.9,8.14l0.59,0.65C95.42,19.95,98,26.84,98,34.06
			c0,7.28-2.58,14.15-7.25,19.36c0,0,0,0,0,0.05L52.24,94.96C51.65,95.61,50.74,96,49.83,96L49.83,96z M13.72,48.98L13.72,48.98
			l36.11,38.96l36.11-38.96c7.47-8.21,7.47-21.58,0-29.82l-0.59-0.65c-3.51-3.88-8.15-6.02-13.1-6.02c-4.83,0-9.53,2.14-13.03,6.02
			l-6.99,7.72c-0.59,0.65-1.5,1.1-2.4,1.1c-0.91,0-1.81-0.45-2.41-1.1l-6.98-7.72c-3.51-3.88-8.12-6.02-13.04-6.02
			c-4.92,0-9.53,2.14-13.04,6.02l-0.59,0.65C6.33,27.4,6.33,40.77,13.72,48.98L13.72,48.98z"/>
	</g>
</g>
<path class="st9" d="M83.32,52.41l11.81-4.17l-1.81-10.27l-12.54-0.08c-1.11-2.65-2.55-5.13-4.27-7.39l6.37-10.8L74.88,13
	l-9.67,8.01c-2.5-1.3-5.19-2.29-8.01-2.93L55.14,5.72H44.71l-2.26,12.34c-2.82,0.63-5.51,1.62-8.02,2.92l-9.53-8.15l-7.99,6.7
	l6.21,10.92c-1.72,2.25-3.17,4.73-4.29,7.38L6.32,37.71L4.51,47.98l11.76,4.37c0.13,2.92,0.64,5.74,1.47,8.42l-9.66,7.96l5.21,9.03
	l11.83-4.22c1.93,2.09,4.12,3.94,6.52,5.49l-2.29,12.33l9.8,3.57l6.34-10.83c1.41,0.18,2.84,0.28,4.3,0.28
	c1.44,0,2.85-0.1,4.24-0.28L60.19,95l9.8-3.57l-2.1-12.38c2.4-1.55,4.6-3.39,6.53-5.47l11.75,4.4l5.21-9.03l-9.55-8.12
	C82.67,58.15,83.18,55.33,83.32,52.41z M49.79,77.33c-14.63,0-26.52-11.9-26.52-26.52s11.9-26.53,26.52-26.53
	c14.63,0,26.53,11.9,26.53,26.53S64.42,77.33,49.79,77.33z"/>
</svg>
