<?xml version="1.0" encoding="utf-8"?>
<!-- Generator: Adobe Illustrator 24.2.3, SVG Export Plug-In . SVG Version: 6.00 Build 0)  -->
<svg version="1.1" id="Слой_1" xmlns="http://www.w3.org/2000/svg" xmlns:xlink="http://www.w3.org/1999/xlink" x="0px" y="0px"
	 viewBox="0 0 100 100" style="enable-background:new 0 0 100 100;" xml:space="preserve">
<style type="text/css">
	.st0{display:none;}
	.st1{display:inline;fill:#FFFFFF;}
	.st2{display:none;fill:none;stroke:#FFFFFF;stroke-width:3;stroke-miterlimit:10;}
	.st3{display:inline;fill:#F9F9F9;}
	
		.st4{display:none;fill-rule:evenodd;clip-rule:evenodd;fill:none;stroke:#FFFFFF;stroke-width:0.4;stroke-linecap:round;stroke-miterlimit:10;}
	.st5{display:none;opacity:0.87;fill:#D9D9D9;}
	.st6{display:none;opacity:0.87;}
	.st7{display:inline;}
	.st8{fill:#D9D9D9;}
	.st9{fill:#FFFFFF;}
	.st10{fill:none;}
	.st11{opacity:0.87;}
</style>
<g class="st0">
	<path class="st1" d="M46.93,49.21c0-0.3,0.01-0.6,0-0.9c-0.08-1.94-1.1-2.69-2.98-2.18c-0.12,0.03-0.23,0.08-0.35,0.09
		c-0.49,0.04-0.94,0.77-1.34,0.35c-0.3-0.31,0.11-0.96,0.13-1.46c0.02-0.93,0.5-1.47,1.3-1.85c1.46-0.7,2.88-1.47,4.52-1.72
		c2.61-0.4,4.77,0.87,5.67,3.35c0.46,1.29,0.51,2.61,0.45,3.98c-0.25,5.33-1.93,10.42-2.56,15.69c-0.12,0.99-0.13,1.97,0.11,2.95
		c0.25,1.05,0.99,1.53,2.08,1.37c0.72-0.1,1.41-0.28,2.05-0.62c0.46-0.24,0.65-0.06,0.62,0.46c-0.07,1.48-0.55,2.56-2.05,3.23
		c-1.56,0.7-3.01,1.54-4.83,1.44c-2.64-0.14-4.64-1.81-5.15-4.54c-0.42-2.25-0.1-4.49,0.27-6.7c0.62-3.75,1.33-7.49,1.98-11.24
		c0.1-0.56,0.09-1.13,0.14-1.7C46.96,49.22,46.95,49.21,46.93,49.21z"/>
	<path class="st1" d="M47.62,32.01c0-2.59,2.15-4.76,4.74-4.77c2.68-0.02,4.72,2.03,4.73,4.73c0.01,2.74-1.94,4.69-4.7,4.69
		C49.65,36.66,47.62,34.68,47.62,32.01z"/>
</g>
<circle class="st2" cx="49.62" cy="50.45" r="44.38"/>
<g class="st0">
	<path class="st3" d="M36.07,75.88c0.01,0.14,0,0.27,0,0.41h30.86c0.04-0.39,0.04-0.78,0.09-1.17c0.67-5.23,3.59-9.28,7.02-13.02
		c4.35-4.75,8.41-9.74,9.86-16.15c1.89-8.37,1.09-16.49-3.01-24.25C74.75,10.07,61.32,2.73,48.28,4.18
		C28.17,6.41,14.72,24.93,18.8,44.8c1.49,7.26,5.96,12.74,10.76,18.03C32.95,66.57,35.6,70.73,36.07,75.88z"/>
	<path class="st3" d="M65.57,95H38.36c-0.13,0-0.23-0.1-0.23-0.23v-9.65c0-0.13,0.1-0.23,0.23-0.23h27.21c0.13,0,0.23,0.1,0.23,0.23
		v9.65C65.8,94.9,65.7,95,65.57,95z"/>
</g>
<line class="st4" x1="7.97" y1="9.81" x2="96" y2="9.81"/>
<line class="st4" x1="7.34" y1="48.92" x2="95.37" y2="48.92"/>
<line class="st4" x1="6.71" y1="89.91" x2="94.75" y2="89.91"/>
<path class="st5" d="M89.93,13.56l-0.58-0.63C84.76,7.83,78.56,5,71.91,5c-6.55,0-12.76,2.83-17.37,7.93l-4.49,4.94l-4.41-4.94
	C40.96,7.83,34.76,5,28.19,5c-6.63,0-12.85,2.83-17.45,7.93l-0.57,0.63c-4.54,5.07-7.06,11.78-7.06,18.82
	c0,7.1,2.52,13.79,7.06,18.86c0,0,0,0,0,0.05l37.54,40.44c0.63,0.63,1.46,1.02,2.34,1.02c0.88,0,1.77-0.38,2.34-1.02L89.93,51.3
	c0-0.05,0-0.05,0-0.05C94.48,46.18,97,39.48,97,32.39C97,25.35,94.48,18.64,89.93,13.56z"/>
<g class="st6">
	<g class="st7">
		<path class="st8" d="M49.83,96c-0.91,0-1.76-0.39-2.41-1.04L8.91,53.47c0-0.05,0-0.05,0-0.05c-4.66-5.2-7.24-12.07-7.24-19.36
			c0-7.22,2.58-14.11,7.24-19.31l0.58-0.65c4.73-5.23,11.1-8.14,17.91-8.14c6.74,0,13.1,2.91,17.9,8.14l4.53,5.06l4.6-5.06
			c4.73-5.23,11.1-8.14,17.82-8.14c6.83,0,13.18,2.91,17.9,8.14l0.59,0.65C95.42,19.95,98,26.84,98,34.06
			c0,7.28-2.58,14.15-7.25,19.36c0,0,0,0,0,0.05L52.24,94.96C51.65,95.61,50.74,96,49.83,96L49.83,96z M13.72,48.98L13.72,48.98
			l36.11,38.96l36.11-38.96c7.47-8.21,7.47-21.58,0-29.82l-0.59-0.65c-3.51-3.88-8.15-6.02-13.1-6.02c-4.83,0-9.53,2.14-13.03,6.02
			l-6.99,7.72c-0.59,0.65-1.5,1.1-2.4,1.1c-0.91,0-1.81-0.45-2.41-1.1l-6.98-7.72c-3.51-3.88-8.12-6.02-13.04-6.02
			c-4.92,0-9.53,2.14-13.04,6.02l-0.59,0.65C6.33,27.4,6.33,40.77,13.72,48.98L13.72,48.98z"/>
	</g>
</g>
<g class="st0">
	<g class="st7">
		<path class="st9" d="M40.25,37.49h1.31v2.77h0.03c0.29-0.65,0.83-0.97,1.62-0.97c0.56,0,1,0.17,1.32,0.51
			c0.33,0.34,0.49,0.8,0.49,1.38v3.21h-1.33v-2.93c0-0.33-0.09-0.59-0.27-0.78c-0.18-0.19-0.43-0.28-0.75-0.28
			c-0.33,0-0.59,0.1-0.79,0.31c-0.2,0.21-0.3,0.48-0.3,0.82v2.85h-1.33V37.49z"/>
		<path class="st9" d="M50.44,42.85c-0.07,0.49-0.32,0.88-0.73,1.17c-0.42,0.3-0.93,0.45-1.54,0.45c-0.76,0-1.36-0.23-1.81-0.69
			c-0.44-0.46-0.66-1.09-0.66-1.89s0.22-1.43,0.65-1.91c0.44-0.47,1.02-0.71,1.76-0.71c0.72,0,1.3,0.22,1.72,0.67
			c0.43,0.45,0.64,1.06,0.64,1.82v0.41h-3.47v0.08c0,0.36,0.11,0.66,0.32,0.88c0.22,0.22,0.5,0.33,0.85,0.33
			c0.25,0,0.47-0.06,0.65-0.17c0.19-0.11,0.31-0.26,0.37-0.46H50.44z M47.37,40.57c-0.2,0.2-0.31,0.46-0.34,0.78h2.17
			c-0.01-0.33-0.12-0.59-0.31-0.79c-0.19-0.2-0.45-0.3-0.76-0.3C47.83,40.27,47.58,40.37,47.37,40.57z"/>
		<path class="st9" d="M41.47,54.78c-0.07-0.54-0.29-0.97-0.65-1.29c-0.37-0.34-0.84-0.51-1.41-0.51c-0.7,0-1.25,0.28-1.65,0.83
			c-0.41,0.56-0.61,1.33-0.61,2.3c0,0.98,0.2,1.75,0.61,2.31c0.41,0.55,0.96,0.82,1.66,0.82c1.19,0,1.87-0.58,2.06-1.74h2.51
			c-0.08,1.18-0.53,2.12-1.36,2.82c-0.83,0.7-1.91,1.05-3.24,1.05c-1.53,0-2.74-0.47-3.63-1.4c-0.9-0.95-1.35-2.23-1.35-3.86
			c0-1.61,0.45-2.88,1.35-3.83c0.89-0.95,2.1-1.42,3.61-1.42c1.34,0,2.43,0.37,3.28,1.12c0.82,0.72,1.26,1.66,1.33,2.81H41.47z"/>
		<path class="st9" d="M79.31,54.94c-0.07-0.54-0.29-0.97-0.65-1.29c-0.37-0.34-0.84-0.51-1.41-0.51c-0.7,0-1.25,0.28-1.65,0.83
			c-0.41,0.56-0.61,1.33-0.61,2.3c0,0.98,0.2,1.75,0.61,2.31c0.41,0.55,0.96,0.82,1.66,0.82c1.19,0,1.87-0.58,2.06-1.74h2.51
			c-0.08,1.18-0.53,2.12-1.36,2.82c-0.83,0.7-1.91,1.05-3.24,1.05c-1.53,0-2.74-0.47-3.63-1.4c-0.9-0.95-1.35-2.23-1.35-3.86
			c0-1.61,0.45-2.88,1.35-3.83c0.89-0.95,2.1-1.42,3.61-1.42c1.34,0,2.43,0.37,3.28,1.12c0.82,0.72,1.26,1.66,1.33,2.81H79.31z"/>
		<path class="st9" d="M45.41,47.24h2.65v5.61h0.06c0.58-1.31,1.68-1.97,3.29-1.97c1.13,0,2.02,0.34,2.68,1.02s0.99,1.61,0.99,2.79
			v6.5h-2.7v-5.94c0-0.66-0.18-1.19-0.55-1.57c-0.37-0.38-0.87-0.56-1.51-0.56c-0.66,0-1.19,0.21-1.6,0.64
			c-0.41,0.42-0.61,0.98-0.61,1.66v5.77h-2.7V47.24z"/>
		<path class="st9" d="M57.82,59.97c-0.9-0.94-1.35-2.22-1.35-3.86c0-1.62,0.45-2.9,1.36-3.85c0.9-0.94,2.12-1.4,3.66-1.4
			c1.54,0,2.76,0.47,3.66,1.4c0.9,0.94,1.36,2.23,1.36,3.85c0,1.64-0.45,2.93-1.35,3.87c-0.89,0.93-2.11,1.39-3.67,1.39
			C59.94,61.38,58.72,60.91,57.82,59.97z M63.16,58.47c0.4-0.56,0.6-1.35,0.6-2.35c0-1-0.2-1.78-0.61-2.35
			c-0.4-0.56-0.95-0.84-1.66-0.84c-0.71,0-1.27,0.28-1.67,0.84c-0.41,0.57-0.61,1.35-0.61,2.35c0,1.01,0.2,1.79,0.61,2.35
			c0.4,0.55,0.96,0.83,1.67,0.83S62.76,59.02,63.16,58.47z"/>
		<path class="st9" d="M68.31,49.52c-0.28-0.27-0.42-0.61-0.42-1.01c0-0.4,0.14-0.74,0.42-1.01c0.28-0.26,0.62-0.4,1.02-0.4
			c0.41,0,0.75,0.13,1.03,0.4c0.28,0.27,0.43,0.61,0.43,1.01c0,0.4-0.14,0.74-0.43,1.01s-0.63,0.41-1.03,0.41
			C68.94,49.93,68.6,49.79,68.31,49.52z M67.99,51.03h2.7V61.2h-2.7V51.03z"/>
		<path class="st9" d="M95.52,60.98c-0.28-0.27-0.42-0.61-0.42-1.01s0.14-0.74,0.42-1.01c0.28-0.26,0.62-0.4,1.02-0.4
			c0.41,0,0.75,0.13,1.03,0.4c0.28,0.27,0.43,0.61,0.43,1.01s-0.14,0.74-0.43,1.01c-0.28,0.27-0.63,0.41-1.03,0.41
			C96.14,61.39,95.8,61.25,95.52,60.98z"/>
		<path class="st9" d="M93.46,55.48c0.36,0.93,0.32,1.86-0.11,2.8c-0.43,0.94-1.19,1.72-2.26,2.34c-1.34,0.77-2.63,0.97-3.87,0.6
			c-1.23-0.37-2.25-1.25-3.05-2.66s-1.06-2.74-0.77-4.01c0.29-1.27,1.09-2.28,2.38-3.02c1.27-0.73,2.51-0.91,3.71-0.55
			c1.21,0.36,2.19,1.21,2.96,2.55l0.41,0.72l-6.09,3.48l0.08,0.14c0.36,0.64,0.85,1.04,1.45,1.22c0.6,0.17,1.21,0.08,1.83-0.27
			c0.44-0.25,0.77-0.57,0.98-0.95c0.22-0.38,0.28-0.77,0.2-1.18L93.46,55.48z M85.77,54.56c-0.15,0.55-0.09,1.13,0.2,1.72l3.81-2.18
			c-0.35-0.56-0.8-0.92-1.34-1.08c-0.54-0.15-1.08-0.07-1.63,0.24C86.27,53.57,85.92,54,85.77,54.56z"/>
		<path class="st9" d="M36.24,44.38v-5.44h-1.92V37.8h5.23v1.14h-1.93v5.44H36.24z"/>
	</g>
	<g class="st7">
		<path class="st10" d="M18.58,47.93l-2.08,0.63c-0.81-2.68-2.13-5.01-3.73-6.56c-0.49-0.48-1-0.86-1.49-1.14
			c-1.05,1.94-1.33,5.33-0.17,9.26l-2.2,0.64c-0.32-1.09-0.54-2.16-0.67-3.2c0.11,1.01,0.33,2.08,0.66,3.2l0.01,0
			c0.01,0.03,0.02,0.06,0.03,0.09l2.19-0.66c0.21,0.69,0.45,1.35,0.72,1.99c-0.27-0.65-0.51-1.32-0.72-2.02l2.19-0.66
			c0.81,2.68,2.13,5.01,3.73,6.56c0.46,0.45,0.94,0.82,1.4,1.09c1.03-1.95,1.29-5.3,0.15-9.2l-0.01,0
			C18.58,47.95,18.58,47.94,18.58,47.93z"/>
		<path class="st10" d="M21.44,50.35c0.01,0.04,0.01,0.08,0.02,0.12C21.45,50.43,21.45,50.39,21.44,50.35z"/>
		<path class="st9" d="M9.23,38.02c-0.38,0.02-0.76,0.08-1.13,0.2c-3.92,1.18-5.44,7.26-3.48,13.84l2.09-0.61
			C4.91,45.43,6.03,39.84,9.23,38.02z"/>
		<path class="st9" d="M16.5,48.56l2.08-0.63c-0.81-2.67-2.13-4.99-3.72-6.54c-0.92-0.9-1.87-1.46-2.74-1.63
			c-0.31,0.28-0.59,0.65-0.83,1.1c0.49,0.28,1,0.66,1.49,1.14C14.36,43.55,15.69,45.88,16.5,48.56z"/>
		<path class="st9" d="M8.23,47.56c0.13,1.04,0.36,2.11,0.67,3.2l2.2-0.64c-1.15-3.93-0.87-7.32,0.17-9.26
			c0.24-0.45,0.52-0.81,0.83-1.1c0.29-0.27,0.62-0.46,0.96-0.56c1.15-0.35,2.61,0.23,4.01,1.6c1.26,1.22,2.34,2.93,3.15,4.92
			c0.21,0.51,0.4,1.04,0.56,1.58l2.2-0.64c-0.92-3.03-2.45-5.69-4.31-7.5c-2.04-1.99-4.27-2.75-6.27-2.15
			c-0.33,0.1-0.64,0.24-0.93,0.4C8.86,38.88,7.63,42.87,8.23,47.56z"/>
		<path class="st9" d="M25.19,46l-2.2,0.64c0.17,0.57,0.31,1.13,0.42,1.67c1.14,5.29,0.01,9.99-2.79,11.72
			c0.37-0.02,0.73-0.08,1.09-0.19C25.63,58.66,27.15,52.59,25.19,46z"/>
		<path class="st9" d="M13.31,49.49l-2.19,0.66c0.21,0.69,0.45,1.37,0.72,2.02c0.79,1.84,1.82,3.42,3.01,4.58
			c0.89,0.87,1.81,1.42,2.65,1.61c0.36-0.3,0.67-0.71,0.94-1.21c-0.47-0.27-0.94-0.64-1.4-1.09C15.44,54.5,14.12,52.17,13.31,49.49z
			"/>
		<path class="st9" d="M21.46,50.48c-0.01-0.04-0.01-0.08-0.02-0.12c0-0.03-0.01-0.06-0.01-0.09c-0.14-0.97-0.35-1.96-0.65-2.97
			l-0.01,0l-2.19,0.64c0,0.01,0,0.01,0.01,0.02c1.14,3.89,0.87,7.25-0.15,9.2c-0.27,0.5-0.58,0.91-0.94,1.21
			c-0.27,0.23-0.57,0.4-0.88,0.49c-1.15,0.35-2.61-0.23-4.01-1.6c-1.56-1.52-2.87-3.8-3.68-6.41c-0.01-0.03-0.02-0.06-0.03-0.09
			l-0.01,0L6.71,51.4c0,0.02,0.01,0.03,0.01,0.05c0.92,3.01,2.45,5.65,4.29,7.45c2.04,1.99,4.27,2.75,6.27,2.15
			c0.27-0.08,0.52-0.19,0.76-0.31C20.79,59.34,22.08,55.27,21.46,50.48z"/>
	</g>
</g>
<g class="st11">
	<g>
		<path class="st8" d="M16.08,77.83c-0.4,2.8-0.78,5.57-1.18,8.35c-0.11,0.8-0.2,1.61-0.4,2.39c-0.52,2.04-2.29,3.14-4.45,2.82
			c-1.9-0.29-3.38-2.05-3.12-4.02c0.89-6.74,1.83-13.48,2.83-20.21c0.34-2.29,2.21-3.55,4.68-3.24c5.54,0.69,11.07,1.46,16.6,2.19
			c1.24,0.16,2.48,0.3,3.71,0.51c2.37,0.4,3.78,2.16,3.45,4.25c-0.34,2.12-2.19,3.43-4.56,3.15c-2.89-0.34-5.77-0.77-8.65-1.16
			c-0.35-0.05-0.7-0.12-1.06-0.13c-0.4-0.02-0.94-0.2-1.16,0.18c-0.31,0.52,0.28,0.82,0.57,1.13c3.25,3.45,7.05,6.2,11.42,8.15
			c22.27,9.91,47.56-3.3,51.24-26.78c0.28-1.76,0.32-3.56,0.43-5.34c0.15-2.26,1.67-3.82,3.76-3.83c2.08,0,3.76,1.55,3.89,3.76
			c0.16,2.55-0.24,5.06-0.65,7.57c-2.94,18.06-18.87,33.07-37.56,35.12c-15.07,1.65-27.87-3.03-38.32-13.69
			c-0.33-0.33-0.64-0.68-0.98-1C16.51,77.91,16.37,77.91,16.08,77.83z"/>
		<path class="st8" d="M84.15,22.99c0.41-2.93,0.82-5.81,1.23-8.7c0.11-0.74,0.19-1.49,0.37-2.22c0.5-2.06,2.3-3.24,4.37-2.92
			c1.96,0.3,3.46,2.15,3.19,4.16c-0.81,6.06-1.68,12.1-2.54,18.15c-0.06,0.4-0.14,0.8-0.18,1.2c-0.36,2.94-2.07,4.32-5.09,3.96
			c-3.71-0.44-7.42-0.97-11.12-1.47c-2.94-0.4-5.89-0.77-8.82-1.23c-2.43-0.38-3.88-2.14-3.54-4.17c0.38-2.27,2.34-3.53,4.88-3.17
			c2.88,0.41,5.76,0.8,8.65,1.17c0.62,0.08,1.25,0.01,2.14,0.01c-2.2-2.71-4.7-4.72-7.4-6.48C48.63,7.24,19.28,19.28,14.53,44.15
			c-0.41,2.16-0.48,4.35-0.66,6.53c-0.19,2.32-1.75,3.99-3.85,3.94c-2.15-0.04-3.81-1.67-3.83-4c-0.04-4.71,0.66-9.34,2.36-13.75
			C14.8,20.6,26.75,10.67,44.51,8.29c14.87-2,27.61,2.94,38.05,13.42C83,22.15,83.28,22.77,84.15,22.99z"/>
	</g>
</g>
</svg>
